solid OpenSCAD_Model
  facet normal -1 0 0
    outer loop
      vertex 0 0 0
      vertex 0 10.16 7.515
      vertex 0 10.16 0
    endloop
  endfacet
  facet normal -1 -0 0
    outer loop
      vertex 0 10.16 7.515
      vertex 0 0 0
      vertex 0 0 7.515
    endloop
  endfacet
  facet normal 0 0 1
    outer loop
      vertex 10.0933 2.34 7.515
      vertex 12.954 10.16 7.515
      vertex 10.0933 8.89 7.515
    endloop
  endfacet
  facet normal 0 0 1
    outer loop
      vertex 12.954 10.16 7.515
      vertex 2.8607 8.89 7.515
      vertex 10.0933 8.89 7.515
    endloop
  endfacet
  facet normal 0 0 1
    outer loop
      vertex 2.8607 8.89 7.515
      vertex 0 10.16 7.515
      vertex 2.8607 2.34 7.515
    endloop
  endfacet
  facet normal -0 0 1
    outer loop
      vertex 0 10.16 7.515
      vertex 2.8607 8.89 7.515
      vertex 12.954 10.16 7.515
    endloop
  endfacet
  facet normal 0 0 1
    outer loop
      vertex 12.954 10.16 7.515
      vertex 10.0933 2.34 7.515
      vertex 12.954 0 7.515
    endloop
  endfacet
  facet normal -0 0 1
    outer loop
      vertex 2.8607 2.34 7.515
      vertex 12.954 0 7.515
      vertex 10.0933 2.34 7.515
    endloop
  endfacet
  facet normal 0 0 1
    outer loop
      vertex 2.8607 2.34 7.515
      vertex 0 0 7.515
      vertex 12.954 0 7.515
    endloop
  endfacet
  facet normal 0 0 1
    outer loop
      vertex 0 0 7.515
      vertex 2.8607 2.34 7.515
      vertex 0 10.16 7.515
    endloop
  endfacet
  facet normal 1 -0 0
    outer loop
      vertex 12.954 0 7.515
      vertex 12.954 10.16 0
      vertex 12.954 10.16 7.515
    endloop
  endfacet
  facet normal 1 0 0
    outer loop
      vertex 12.954 10.16 0
      vertex 12.954 0 7.515
      vertex 12.954 0 0
    endloop
  endfacet
  facet normal 0 0 -1
    outer loop
      vertex 0 0 0
      vertex 12.954 10.16 0
      vertex 12.954 0 0
    endloop
  endfacet
  facet normal -0 0 -1
    outer loop
      vertex 12.954 10.16 0
      vertex 0 0 0
      vertex 0 10.16 0
    endloop
  endfacet
  facet normal 0 -1 0
    outer loop
      vertex 0 0 0
      vertex 12.954 0 7.515
      vertex 0 0 7.515
    endloop
  endfacet
  facet normal 0 -1 -0
    outer loop
      vertex 12.954 0 7.515
      vertex 0 0 0
      vertex 12.954 0 0
    endloop
  endfacet
  facet normal 0 1 0
    outer loop
      vertex 12.954 10.16 7.515
      vertex 6.477 10.16 5.7745
      vertex 0 10.16 7.515
    endloop
  endfacet
  facet normal 0 1 0
    outer loop
      vertex 12.954 10.16 7.515
      vertex 6.60035 10.16 5.77062
      vertex 6.477 10.16 5.7745
    endloop
  endfacet
  facet normal 0 1 0
    outer loop
      vertex 12.954 10.16 7.515
      vertex 6.72322 10.16 5.75901
      vertex 6.60035 10.16 5.77062
    endloop
  endfacet
  facet normal 0 1 0
    outer loop
      vertex 12.954 10.16 7.515
      vertex 6.84511 10.16 5.7397
      vertex 6.72322 10.16 5.75901
    endloop
  endfacet
  facet normal 0 1 0
    outer loop
      vertex 12.954 10.16 7.515
      vertex 6.96555 10.16 5.71278
      vertex 6.84511 10.16 5.7397
    endloop
  endfacet
  facet normal 0 1 0
    outer loop
      vertex 12.954 10.16 7.515
      vertex 7.08406 10.16 5.67835
      vertex 6.96555 10.16 5.71278
    endloop
  endfacet
  facet normal 0 1 0
    outer loop
      vertex 12.954 10.16 7.515
      vertex 7.20018 10.16 5.63655
      vertex 7.08406 10.16 5.67835
    endloop
  endfacet
  facet normal 0 1 0
    outer loop
      vertex 12.954 10.16 7.515
      vertex 7.31344 10.16 5.58753
      vertex 7.20018 10.16 5.63655
    endloop
  endfacet
  facet normal 0 1 0
    outer loop
      vertex 12.954 10.16 7.515
      vertex 7.4234 10.16 5.5315
      vertex 7.31344 10.16 5.58753
    endloop
  endfacet
  facet normal 0 1 0
    outer loop
      vertex 12.954 10.16 7.515
      vertex 7.52963 10.16 5.46868
      vertex 7.4234 10.16 5.5315
    endloop
  endfacet
  facet normal 0 1 0
    outer loop
      vertex 12.954 10.16 7.515
      vertex 7.6317 10.16 5.39931
      vertex 7.52963 10.16 5.46868
    endloop
  endfacet
  facet normal 0 1 0
    outer loop
      vertex 12.954 10.16 7.515
      vertex 7.72922 10.16 5.32367
      vertex 7.6317 10.16 5.39931
    endloop
  endfacet
  facet normal 0 1 0
    outer loop
      vertex 12.954 10.16 7.515
      vertex 7.82179 10.16 5.24206
      vertex 7.72922 10.16 5.32367
    endloop
  endfacet
  facet normal 0 1 0
    outer loop
      vertex 12.954 10.16 7.515
      vertex 7.90906 10.16 5.15479
      vertex 7.82179 10.16 5.24206
    endloop
  endfacet
  facet normal 0 1 0
    outer loop
      vertex 12.954 10.16 7.515
      vertex 7.99067 10.16 5.06222
      vertex 7.90906 10.16 5.15479
    endloop
  endfacet
  facet normal 0 1 0
    outer loop
      vertex 12.954 10.16 7.515
      vertex 8.06631 10.16 4.9647
      vertex 7.99067 10.16 5.06222
    endloop
  endfacet
  facet normal 0 1 0
    outer loop
      vertex 12.954 10.16 7.515
      vertex 8.13568 10.16 4.86263
      vertex 8.06631 10.16 4.9647
    endloop
  endfacet
  facet normal 0 1 0
    outer loop
      vertex 12.954 10.16 7.515
      vertex 8.1985 10.16 4.7564
      vertex 8.13568 10.16 4.86263
    endloop
  endfacet
  facet normal 0 1 0
    outer loop
      vertex 12.954 10.16 7.515
      vertex 8.25453 10.16 4.64644
      vertex 8.1985 10.16 4.7564
    endloop
  endfacet
  facet normal 0 1 0
    outer loop
      vertex 12.954 10.16 7.515
      vertex 8.30354 10.16 4.53318
      vertex 8.25453 10.16 4.64644
    endloop
  endfacet
  facet normal 0 1 0
    outer loop
      vertex 12.954 10.16 7.515
      vertex 8.34535 10.16 4.41706
      vertex 8.30354 10.16 4.53318
    endloop
  endfacet
  facet normal 0 1 0
    outer loop
      vertex 12.954 10.16 7.515
      vertex 8.37978 10.16 4.29855
      vertex 8.34535 10.16 4.41706
    endloop
  endfacet
  facet normal 0 1 0
    outer loop
      vertex 12.954 10.16 7.515
      vertex 8.4067 10.16 4.17811
      vertex 8.37978 10.16 4.29855
    endloop
  endfacet
  facet normal 0 1 0
    outer loop
      vertex 12.954 10.16 7.515
      vertex 8.42601 10.16 4.05622
      vertex 8.4067 10.16 4.17811
    endloop
  endfacet
  facet normal 0 1 0
    outer loop
      vertex 12.954 10.16 7.515
      vertex 8.43762 10.16 3.93335
      vertex 8.42601 10.16 4.05622
    endloop
  endfacet
  facet normal 0 1 0
    outer loop
      vertex 12.954 10.16 7.515
      vertex 8.4415 10.16 3.81
      vertex 8.43762 10.16 3.93335
    endloop
  endfacet
  facet normal 0 1 -0
    outer loop
      vertex 12.954 10.16 0
      vertex 8.4415 10.16 3.81
      vertex 12.954 10.16 7.515
    endloop
  endfacet
  facet normal 0 1 0
    outer loop
      vertex 8.4415 10.16 3.81
      vertex 12.954 10.16 0
      vertex 8.43762 10.16 3.68665
    endloop
  endfacet
  facet normal 0 1 0
    outer loop
      vertex 8.43762 10.16 3.68665
      vertex 12.954 10.16 0
      vertex 8.42601 10.16 3.56378
    endloop
  endfacet
  facet normal 0 1 0
    outer loop
      vertex 8.42601 10.16 3.56378
      vertex 12.954 10.16 0
      vertex 8.4067 10.16 3.44189
    endloop
  endfacet
  facet normal 0 1 0
    outer loop
      vertex 8.4067 10.16 3.44189
      vertex 12.954 10.16 0
      vertex 8.37978 10.16 3.32145
    endloop
  endfacet
  facet normal 0 1 0
    outer loop
      vertex 8.37978 10.16 3.32145
      vertex 12.954 10.16 0
      vertex 8.34535 10.16 3.20294
    endloop
  endfacet
  facet normal 0 1 0
    outer loop
      vertex 8.34535 10.16 3.20294
      vertex 12.954 10.16 0
      vertex 8.30354 10.16 3.08682
    endloop
  endfacet
  facet normal 0 1 0
    outer loop
      vertex 8.30354 10.16 3.08682
      vertex 12.954 10.16 0
      vertex 8.25453 10.16 2.97356
    endloop
  endfacet
  facet normal 0 1 0
    outer loop
      vertex 8.25453 10.16 2.97356
      vertex 12.954 10.16 0
      vertex 8.1985 10.16 2.86359
    endloop
  endfacet
  facet normal 0 1 0
    outer loop
      vertex 8.1985 10.16 2.86359
      vertex 12.954 10.16 0
      vertex 8.13568 10.16 2.75737
    endloop
  endfacet
  facet normal 0 1 0
    outer loop
      vertex 8.13568 10.16 2.75737
      vertex 12.954 10.16 0
      vertex 8.06631 10.16 2.6553
    endloop
  endfacet
  facet normal 0 1 0
    outer loop
      vertex 8.06631 10.16 2.6553
      vertex 12.954 10.16 0
      vertex 7.99067 10.16 2.55778
    endloop
  endfacet
  facet normal 0 1 0
    outer loop
      vertex 6.60035 10.16 1.84938
      vertex 12.954 10.16 0
      vertex 6.477 10.16 1.8455
    endloop
  endfacet
  facet normal 0 1 0
    outer loop
      vertex 6.72322 10.16 1.86099
      vertex 12.954 10.16 0
      vertex 6.60035 10.16 1.84938
    endloop
  endfacet
  facet normal 0 1 0
    outer loop
      vertex 6.84511 10.16 1.8803
      vertex 12.954 10.16 0
      vertex 6.72322 10.16 1.86099
    endloop
  endfacet
  facet normal 0 1 0
    outer loop
      vertex 6.96555 10.16 1.90722
      vertex 12.954 10.16 0
      vertex 6.84511 10.16 1.8803
    endloop
  endfacet
  facet normal 0 1 0
    outer loop
      vertex 7.08406 10.16 1.94165
      vertex 12.954 10.16 0
      vertex 6.96555 10.16 1.90722
    endloop
  endfacet
  facet normal 0 1 0
    outer loop
      vertex 7.20018 10.16 1.98345
      vertex 12.954 10.16 0
      vertex 7.08406 10.16 1.94165
    endloop
  endfacet
  facet normal 0 1 0
    outer loop
      vertex 7.31344 10.16 2.03247
      vertex 12.954 10.16 0
      vertex 7.20018 10.16 1.98345
    endloop
  endfacet
  facet normal 0 1 0
    outer loop
      vertex 7.4234 10.16 2.0885
      vertex 12.954 10.16 0
      vertex 7.31344 10.16 2.03247
    endloop
  endfacet
  facet normal 0 1 0
    outer loop
      vertex 7.52963 10.16 2.15132
      vertex 12.954 10.16 0
      vertex 7.4234 10.16 2.0885
    endloop
  endfacet
  facet normal 0 1 0
    outer loop
      vertex 7.6317 10.16 2.22069
      vertex 12.954 10.16 0
      vertex 7.52963 10.16 2.15132
    endloop
  endfacet
  facet normal 0 1 0
    outer loop
      vertex 7.72922 10.16 2.29633
      vertex 12.954 10.16 0
      vertex 7.6317 10.16 2.22069
    endloop
  endfacet
  facet normal 0 1 0
    outer loop
      vertex 7.82179 10.16 2.37794
      vertex 12.954 10.16 0
      vertex 7.72922 10.16 2.29633
    endloop
  endfacet
  facet normal 0 1 0
    outer loop
      vertex 7.90906 10.16 2.46521
      vertex 12.954 10.16 0
      vertex 7.82179 10.16 2.37794
    endloop
  endfacet
  facet normal 0 1 0
    outer loop
      vertex 7.99067 10.16 2.55778
      vertex 12.954 10.16 0
      vertex 7.90906 10.16 2.46521
    endloop
  endfacet
  facet normal 0 1 -0
    outer loop
      vertex 6.35365 10.16 5.77062
      vertex 0 10.16 7.515
      vertex 6.477 10.16 5.7745
    endloop
  endfacet
  facet normal 0 1 -0
    outer loop
      vertex 6.23078 10.16 5.75901
      vertex 0 10.16 7.515
      vertex 6.35365 10.16 5.77062
    endloop
  endfacet
  facet normal 0 1 -0
    outer loop
      vertex 6.10889 10.16 5.7397
      vertex 0 10.16 7.515
      vertex 6.23078 10.16 5.75901
    endloop
  endfacet
  facet normal 0 1 -0
    outer loop
      vertex 5.98845 10.16 5.71278
      vertex 0 10.16 7.515
      vertex 6.10889 10.16 5.7397
    endloop
  endfacet
  facet normal 0 1 -0
    outer loop
      vertex 5.86994 10.16 5.67835
      vertex 0 10.16 7.515
      vertex 5.98845 10.16 5.71278
    endloop
  endfacet
  facet normal 0 1 -0
    outer loop
      vertex 5.75382 10.16 5.63655
      vertex 0 10.16 7.515
      vertex 5.86994 10.16 5.67835
    endloop
  endfacet
  facet normal 0 1 -0
    outer loop
      vertex 5.64056 10.16 5.58753
      vertex 0 10.16 7.515
      vertex 5.75382 10.16 5.63655
    endloop
  endfacet
  facet normal 0 1 -0
    outer loop
      vertex 5.53059 10.16 5.5315
      vertex 0 10.16 7.515
      vertex 5.64056 10.16 5.58753
    endloop
  endfacet
  facet normal 0 1 -0
    outer loop
      vertex 5.42437 10.16 5.46868
      vertex 0 10.16 7.515
      vertex 5.53059 10.16 5.5315
    endloop
  endfacet
  facet normal 0 1 -0
    outer loop
      vertex 5.3223 10.16 5.39931
      vertex 0 10.16 7.515
      vertex 5.42437 10.16 5.46868
    endloop
  endfacet
  facet normal 0 1 -0
    outer loop
      vertex 5.22478 10.16 5.32367
      vertex 0 10.16 7.515
      vertex 5.3223 10.16 5.39931
    endloop
  endfacet
  facet normal 0 1 -0
    outer loop
      vertex 5.13221 10.16 5.24206
      vertex 0 10.16 7.515
      vertex 5.22478 10.16 5.32367
    endloop
  endfacet
  facet normal 0 1 -0
    outer loop
      vertex 5.04494 10.16 5.15479
      vertex 0 10.16 7.515
      vertex 5.13221 10.16 5.24206
    endloop
  endfacet
  facet normal 0 1 -0
    outer loop
      vertex 4.96333 10.16 5.06222
      vertex 0 10.16 7.515
      vertex 5.04494 10.16 5.15479
    endloop
  endfacet
  facet normal 0 1 -0
    outer loop
      vertex 4.88769 10.16 4.9647
      vertex 0 10.16 7.515
      vertex 4.96333 10.16 5.06222
    endloop
  endfacet
  facet normal 0 1 -0
    outer loop
      vertex 4.81832 10.16 4.86263
      vertex 0 10.16 7.515
      vertex 4.88769 10.16 4.9647
    endloop
  endfacet
  facet normal 0 1 -0
    outer loop
      vertex 4.7555 10.16 4.7564
      vertex 0 10.16 7.515
      vertex 4.81832 10.16 4.86263
    endloop
  endfacet
  facet normal 0 1 -0
    outer loop
      vertex 4.69947 10.16 4.64644
      vertex 0 10.16 7.515
      vertex 4.7555 10.16 4.7564
    endloop
  endfacet
  facet normal 0 1 -0
    outer loop
      vertex 4.65045 10.16 4.53318
      vertex 0 10.16 7.515
      vertex 4.69947 10.16 4.64644
    endloop
  endfacet
  facet normal 0 1 -0
    outer loop
      vertex 4.60865 10.16 4.41706
      vertex 0 10.16 7.515
      vertex 4.65045 10.16 4.53318
    endloop
  endfacet
  facet normal 0 1 -0
    outer loop
      vertex 4.57422 10.16 4.29855
      vertex 0 10.16 7.515
      vertex 4.60865 10.16 4.41706
    endloop
  endfacet
  facet normal 0 1 -0
    outer loop
      vertex 4.5473 10.16 4.17811
      vertex 0 10.16 7.515
      vertex 4.57422 10.16 4.29855
    endloop
  endfacet
  facet normal 0 1 -0
    outer loop
      vertex 4.52799 10.16 4.05622
      vertex 0 10.16 7.515
      vertex 4.5473 10.16 4.17811
    endloop
  endfacet
  facet normal 0 1 -0
    outer loop
      vertex 4.51638 10.16 3.93335
      vertex 0 10.16 7.515
      vertex 4.52799 10.16 4.05622
    endloop
  endfacet
  facet normal 0 1 -0
    outer loop
      vertex 4.5125 10.16 3.81
      vertex 0 10.16 7.515
      vertex 4.51638 10.16 3.93335
    endloop
  endfacet
  facet normal 0 1 0
    outer loop
      vertex 0 10.16 0
      vertex 4.5125 10.16 3.81
      vertex 4.51638 10.16 3.68665
    endloop
  endfacet
  facet normal 0 1 0
    outer loop
      vertex 0 10.16 0
      vertex 4.51638 10.16 3.68665
      vertex 4.52799 10.16 3.56378
    endloop
  endfacet
  facet normal 0 1 0
    outer loop
      vertex 0 10.16 0
      vertex 4.52799 10.16 3.56378
      vertex 4.5473 10.16 3.44189
    endloop
  endfacet
  facet normal 0 1 0
    outer loop
      vertex 0 10.16 0
      vertex 4.5473 10.16 3.44189
      vertex 4.57422 10.16 3.32145
    endloop
  endfacet
  facet normal 0 1 0
    outer loop
      vertex 0 10.16 0
      vertex 4.57422 10.16 3.32145
      vertex 4.60865 10.16 3.20294
    endloop
  endfacet
  facet normal 0 1 0
    outer loop
      vertex 0 10.16 0
      vertex 4.60865 10.16 3.20294
      vertex 4.65045 10.16 3.08682
    endloop
  endfacet
  facet normal 0 1 0
    outer loop
      vertex 0 10.16 0
      vertex 4.65045 10.16 3.08682
      vertex 4.69947 10.16 2.97356
    endloop
  endfacet
  facet normal 0 1 0
    outer loop
      vertex 0 10.16 0
      vertex 4.69947 10.16 2.97356
      vertex 4.7555 10.16 2.86359
    endloop
  endfacet
  facet normal 0 1 0
    outer loop
      vertex 0 10.16 0
      vertex 4.7555 10.16 2.86359
      vertex 4.81832 10.16 2.75737
    endloop
  endfacet
  facet normal 0 1 0
    outer loop
      vertex 0 10.16 0
      vertex 4.81832 10.16 2.75737
      vertex 4.88769 10.16 2.6553
    endloop
  endfacet
  facet normal 0 1 0
    outer loop
      vertex 0 10.16 0
      vertex 4.88769 10.16 2.6553
      vertex 4.96333 10.16 2.55778
    endloop
  endfacet
  facet normal 0 1 0
    outer loop
      vertex 0 10.16 0
      vertex 4.96333 10.16 2.55778
      vertex 5.04494 10.16 2.46521
    endloop
  endfacet
  facet normal 0 1 0
    outer loop
      vertex 0 10.16 0
      vertex 6.477 10.16 1.8455
      vertex 12.954 10.16 0
    endloop
  endfacet
  facet normal 0 1 0
    outer loop
      vertex 6.477 10.16 1.8455
      vertex 0 10.16 0
      vertex 6.35365 10.16 1.84938
    endloop
  endfacet
  facet normal 0 1 0
    outer loop
      vertex 6.35365 10.16 1.84938
      vertex 0 10.16 0
      vertex 6.23078 10.16 1.86099
    endloop
  endfacet
  facet normal 0 1 0
    outer loop
      vertex 6.23078 10.16 1.86099
      vertex 0 10.16 0
      vertex 6.10889 10.16 1.8803
    endloop
  endfacet
  facet normal 0 1 0
    outer loop
      vertex 4.5125 10.16 3.81
      vertex 0 10.16 0
      vertex 0 10.16 7.515
    endloop
  endfacet
  facet normal 0 1 0
    outer loop
      vertex 5.13221 10.16 2.37794
      vertex 0 10.16 0
      vertex 5.04494 10.16 2.46521
    endloop
  endfacet
  facet normal 0 1 0
    outer loop
      vertex 5.22478 10.16 2.29633
      vertex 0 10.16 0
      vertex 5.13221 10.16 2.37794
    endloop
  endfacet
  facet normal 0 1 0
    outer loop
      vertex 5.3223 10.16 2.22069
      vertex 0 10.16 0
      vertex 5.22478 10.16 2.29633
    endloop
  endfacet
  facet normal 0 1 0
    outer loop
      vertex 5.42437 10.16 2.15132
      vertex 0 10.16 0
      vertex 5.3223 10.16 2.22069
    endloop
  endfacet
  facet normal 0 1 0
    outer loop
      vertex 5.53059 10.16 2.0885
      vertex 0 10.16 0
      vertex 5.42437 10.16 2.15132
    endloop
  endfacet
  facet normal 0 1 0
    outer loop
      vertex 5.64056 10.16 2.03247
      vertex 0 10.16 0
      vertex 5.53059 10.16 2.0885
    endloop
  endfacet
  facet normal 0 1 0
    outer loop
      vertex 5.75382 10.16 1.98345
      vertex 0 10.16 0
      vertex 5.64056 10.16 2.03247
    endloop
  endfacet
  facet normal 0 1 0
    outer loop
      vertex 5.86994 10.16 1.94165
      vertex 0 10.16 0
      vertex 5.75382 10.16 1.98345
    endloop
  endfacet
  facet normal 0 1 0
    outer loop
      vertex 5.98845 10.16 1.90722
      vertex 0 10.16 0
      vertex 5.86994 10.16 1.94165
    endloop
  endfacet
  facet normal 0 1 0
    outer loop
      vertex 6.10889 10.16 1.8803
      vertex 0 10.16 0
      vertex 5.98845 10.16 1.90722
    endloop
  endfacet
  facet normal -0.999506 0 -0.0314397
    outer loop
      vertex 8.4415 8.89 3.81
      vertex 8.43762 10.16 3.93335
      vertex 8.4415 10.16 3.81
    endloop
  endfacet
  facet normal -0.999506 -0 -0.0314397
    outer loop
      vertex 8.43762 10.16 3.93335
      vertex 8.4415 8.89 3.81
      vertex 8.43762 8.89 3.93335
    endloop
  endfacet
  facet normal -0.995565 0 -0.0940711
    outer loop
      vertex 8.43762 8.89 3.93335
      vertex 8.42601 10.16 4.05622
      vertex 8.43762 10.16 3.93335
    endloop
  endfacet
  facet normal -0.995565 -0 -0.0940711
    outer loop
      vertex 8.42601 10.16 4.05622
      vertex 8.43762 8.89 3.93335
      vertex 8.42601 8.89 4.05622
    endloop
  endfacet
  facet normal 0.0314397 0 -0.999506
    outer loop
      vertex 6.35365 8.89 5.77062
      vertex 6.477 10.16 5.7745
      vertex 6.477 8.89 5.7745
    endloop
  endfacet
  facet normal 0.0314397 0 -0.999506
    outer loop
      vertex 6.477 10.16 5.7745
      vertex 6.35365 8.89 5.77062
      vertex 6.35365 10.16 5.77062
    endloop
  endfacet
  facet normal -0.707107 0 -0.707107
    outer loop
      vertex 7.90906 8.89 5.15479
      vertex 7.82179 10.16 5.24206
      vertex 7.90906 10.16 5.15479
    endloop
  endfacet
  facet normal -0.707107 -0 -0.707107
    outer loop
      vertex 7.82179 10.16 5.24206
      vertex 7.90906 8.89 5.15479
      vertex 7.82179 8.89 5.24206
    endloop
  endfacet
  facet normal 0.707107 0 -0.707107
    outer loop
      vertex 5.13221 8.89 5.24206
      vertex 5.04494 10.16 5.15479
      vertex 5.13221 10.16 5.24206
    endloop
  endfacet
  facet normal 0.707107 0 -0.707107
    outer loop
      vertex 5.04494 10.16 5.15479
      vertex 5.13221 8.89 5.24206
      vertex 5.04494 8.89 5.15479
    endloop
  endfacet
  facet normal 0.397203 0 -0.917731
    outer loop
      vertex 5.64056 8.89 5.58753
      vertex 5.75382 10.16 5.63655
      vertex 5.75382 8.89 5.63655
    endloop
  endfacet
  facet normal 0.397203 0 -0.917731
    outer loop
      vertex 5.75382 10.16 5.63655
      vertex 5.64056 8.89 5.58753
      vertex 5.64056 10.16 5.58753
    endloop
  endfacet
  facet normal -0.0940711 0 0.995565
    outer loop
      vertex 6.60035 10.16 1.84938
      vertex 6.72322 8.89 1.86099
      vertex 6.72322 10.16 1.86099
    endloop
  endfacet
  facet normal -0.0940711 0 0.995565
    outer loop
      vertex 6.72322 8.89 1.86099
      vertex 6.60035 10.16 1.84938
      vertex 6.60035 8.89 1.84938
    endloop
  endfacet
  facet normal -0.91776 0 -0.397134
    outer loop
      vertex 8.30354 8.89 4.53318
      vertex 8.25453 10.16 4.64644
      vertex 8.30354 10.16 4.53318
    endloop
  endfacet
  facet normal -0.91776 -0 -0.397134
    outer loop
      vertex 8.25453 10.16 4.64644
      vertex 8.30354 8.89 4.53318
      vertex 8.25453 8.89 4.64644
    endloop
  endfacet
  facet normal -0.338697 0 -0.940896
    outer loop
      vertex 7.08406 8.89 5.67835
      vertex 7.20018 10.16 5.63655
      vertex 7.20018 8.89 5.63655
    endloop
  endfacet
  facet normal -0.338697 0 -0.940896
    outer loop
      vertex 7.20018 10.16 5.63655
      vertex 7.08406 8.89 5.67835
      vertex 7.08406 10.16 5.67835
    endloop
  endfacet
  facet normal -0.562102 0 -0.827068
    outer loop
      vertex 7.52963 8.89 5.46868
      vertex 7.6317 10.16 5.39931
      vertex 7.6317 8.89 5.39931
    endloop
  endfacet
  facet normal -0.562102 0 -0.827068
    outer loop
      vertex 7.6317 10.16 5.39931
      vertex 7.52963 8.89 5.46868
      vertex 7.52963 10.16 5.46868
    endloop
  endfacet
  facet normal 0.917731 0 -0.397203
    outer loop
      vertex 4.69947 8.89 4.64644
      vertex 4.65045 10.16 4.53318
      vertex 4.69947 10.16 4.64644
    endloop
  endfacet
  facet normal 0.917731 0 -0.397203
    outer loop
      vertex 4.65045 10.16 4.53318
      vertex 4.69947 8.89 4.64644
      vertex 4.65045 8.89 4.53318
    endloop
  endfacet
  facet normal 0.750117 0 -0.661305
    outer loop
      vertex 5.04494 8.89 5.15479
      vertex 4.96333 10.16 5.06222
      vertex 5.04494 10.16 5.15479
    endloop
  endfacet
  facet normal 0.750117 0 -0.661305
    outer loop
      vertex 4.96333 10.16 5.06222
      vertex 5.04494 8.89 5.15479
      vertex 4.96333 8.89 5.06222
    endloop
  endfacet
  facet normal 0.218131 0 -0.975919
    outer loop
      vertex 5.98845 8.89 5.71278
      vertex 6.10889 10.16 5.7397
      vertex 6.10889 8.89 5.7397
    endloop
  endfacet
  facet normal 0.218131 0 -0.975919
    outer loop
      vertex 6.10889 10.16 5.7397
      vertex 5.98845 8.89 5.71278
      vertex 5.98845 10.16 5.71278
    endloop
  endfacet
  facet normal -0.790172 0 0.612885
    outer loop
      vertex 7.99067 8.89 2.55778
      vertex 8.06631 10.16 2.6553
      vertex 7.99067 10.16 2.55778
    endloop
  endfacet
  facet normal -0.790172 0 0.612885
    outer loop
      vertex 8.06631 10.16 2.6553
      vertex 7.99067 8.89 2.55778
      vertex 8.06631 8.89 2.6553
    endloop
  endfacet
  facet normal 0.661305 0 0.750117
    outer loop
      vertex 5.13221 10.16 2.37794
      vertex 5.22478 8.89 2.29633
      vertex 5.22478 10.16 2.29633
    endloop
  endfacet
  facet normal 0.661305 0 0.750117
    outer loop
      vertex 5.22478 8.89 2.29633
      vertex 5.13221 10.16 2.37794
      vertex 5.13221 8.89 2.37794
    endloop
  endfacet
  facet normal -0.975919 0 -0.218131
    outer loop
      vertex 8.4067 8.89 4.17811
      vertex 8.37978 10.16 4.29855
      vertex 8.4067 10.16 4.17811
    endloop
  endfacet
  facet normal -0.975919 -0 -0.218131
    outer loop
      vertex 8.37978 10.16 4.29855
      vertex 8.4067 8.89 4.17811
      vertex 8.37978 8.89 4.29855
    endloop
  endfacet
  facet normal -0.827068 0 -0.562102
    outer loop
      vertex 8.13568 8.89 4.86263
      vertex 8.06631 10.16 4.9647
      vertex 8.13568 10.16 4.86263
    endloop
  endfacet
  facet normal -0.827068 -0 -0.562102
    outer loop
      vertex 8.06631 10.16 4.9647
      vertex 8.13568 8.89 4.86263
      vertex 8.06631 8.89 4.9647
    endloop
  endfacet
  facet normal -0.890998 0 -0.454007
    outer loop
      vertex 8.25453 8.89 4.64644
      vertex 8.1985 10.16 4.7564
      vertex 8.25453 10.16 4.64644
    endloop
  endfacet
  facet normal -0.890998 -0 -0.454007
    outer loop
      vertex 8.1985 10.16 4.7564
      vertex 8.25453 8.89 4.64644
      vertex 8.1985 8.89 4.7564
    endloop
  endfacet
  facet normal -0.15647 0 -0.987683
    outer loop
      vertex 6.72322 8.89 5.75901
      vertex 6.84511 10.16 5.7397
      vertex 6.84511 8.89 5.7397
    endloop
  endfacet
  facet normal -0.15647 0 -0.987683
    outer loop
      vertex 6.84511 10.16 5.7397
      vertex 6.72322 8.89 5.75901
      vertex 6.72322 10.16 5.75901
    endloop
  endfacet
  facet normal -0.278989 0 -0.960294
    outer loop
      vertex 6.96555 8.89 5.71278
      vertex 7.08406 10.16 5.67835
      vertex 7.08406 8.89 5.67835
    endloop
  endfacet
  facet normal -0.278989 0 -0.960294
    outer loop
      vertex 7.08406 10.16 5.67835
      vertex 6.96555 8.89 5.71278
      vertex 6.96555 10.16 5.71278
    endloop
  endfacet
  facet normal -0.661305 0 -0.750117
    outer loop
      vertex 7.72922 8.89 5.32367
      vertex 7.82179 10.16 5.24206
      vertex 7.82179 8.89 5.24206
    endloop
  endfacet
  facet normal -0.661305 0 -0.750117
    outer loop
      vertex 7.82179 10.16 5.24206
      vertex 7.72922 8.89 5.32367
      vertex 7.72922 10.16 5.32367
    endloop
  endfacet
  facet normal 0.987683 0 -0.15647
    outer loop
      vertex 4.5473 8.89 4.17811
      vertex 4.52799 10.16 4.05622
      vertex 4.5473 10.16 4.17811
    endloop
  endfacet
  facet normal 0.987683 0 -0.15647
    outer loop
      vertex 4.52799 10.16 4.05622
      vertex 4.5473 8.89 4.17811
      vertex 4.52799 8.89 4.05622
    endloop
  endfacet
  facet normal 0.827068 0 -0.562102
    outer loop
      vertex 4.88769 8.89 4.9647
      vertex 4.81832 10.16 4.86263
      vertex 4.88769 10.16 4.9647
    endloop
  endfacet
  facet normal 0.827068 0 -0.562102
    outer loop
      vertex 4.81832 10.16 4.86263
      vertex 4.88769 8.89 4.9647
      vertex 4.81832 8.89 4.86263
    endloop
  endfacet
  facet normal 0.940896 0 -0.338697
    outer loop
      vertex 4.65045 8.89 4.53318
      vertex 4.60865 10.16 4.41706
      vertex 4.65045 10.16 4.53318
    endloop
  endfacet
  facet normal 0.940896 0 -0.338697
    outer loop
      vertex 4.60865 10.16 4.41706
      vertex 4.65045 8.89 4.53318
      vertex 4.60865 8.89 4.41706
    endloop
  endfacet
  facet normal 0.562102 0 -0.827068
    outer loop
      vertex 5.3223 8.89 5.39931
      vertex 5.42437 10.16 5.46868
      vertex 5.42437 8.89 5.46868
    endloop
  endfacet
  facet normal 0.562102 0 -0.827068
    outer loop
      vertex 5.42437 10.16 5.46868
      vertex 5.3223 8.89 5.39931
      vertex 5.3223 10.16 5.39931
    endloop
  endfacet
  facet normal 0.453974 0 -0.891015
    outer loop
      vertex 5.53059 8.89 5.5315
      vertex 5.64056 10.16 5.58753
      vertex 5.64056 8.89 5.58753
    endloop
  endfacet
  facet normal 0.453974 0 -0.891015
    outer loop
      vertex 5.64056 10.16 5.58753
      vertex 5.53059 8.89 5.5315
      vertex 5.53059 10.16 5.5315
    endloop
  endfacet
  facet normal 0.15647 0 -0.987683
    outer loop
      vertex 6.10889 8.89 5.7397
      vertex 6.23078 10.16 5.75901
      vertex 6.23078 8.89 5.75901
    endloop
  endfacet
  facet normal 0.15647 0 -0.987683
    outer loop
      vertex 6.23078 10.16 5.75901
      vertex 6.10889 8.89 5.7397
      vertex 6.10889 10.16 5.7397
    endloop
  endfacet
  facet normal -0.960294 0 0.278989
    outer loop
      vertex 8.34535 8.89 3.20294
      vertex 8.37978 10.16 3.32145
      vertex 8.34535 10.16 3.20294
    endloop
  endfacet
  facet normal -0.960294 0 0.278989
    outer loop
      vertex 8.37978 10.16 3.32145
      vertex 8.34535 8.89 3.20294
      vertex 8.37978 8.89 3.32145
    endloop
  endfacet
  facet normal 0.338697 0 0.940896
    outer loop
      vertex 5.75382 10.16 1.98345
      vertex 5.86994 8.89 1.94165
      vertex 5.86994 10.16 1.94165
    endloop
  endfacet
  facet normal 0.338697 0 0.940896
    outer loop
      vertex 5.86994 8.89 1.94165
      vertex 5.75382 10.16 1.98345
      vertex 5.75382 8.89 1.98345
    endloop
  endfacet
  facet normal 0.891015 -0 0.453974
    outer loop
      vertex 4.69947 8.89 2.97356
      vertex 4.7555 10.16 2.86359
      vertex 4.69947 10.16 2.97356
    endloop
  endfacet
  facet normal 0.891015 0 0.453974
    outer loop
      vertex 4.7555 10.16 2.86359
      vertex 4.69947 8.89 2.97356
      vertex 4.7555 8.89 2.86359
    endloop
  endfacet
  facet normal -0.987683 0 -0.15647
    outer loop
      vertex 8.42601 8.89 4.05622
      vertex 8.4067 10.16 4.17811
      vertex 8.42601 10.16 4.05622
    endloop
  endfacet
  facet normal -0.987683 -0 -0.15647
    outer loop
      vertex 8.4067 10.16 4.17811
      vertex 8.42601 8.89 4.05622
      vertex 8.4067 8.89 4.17811
    endloop
  endfacet
  facet normal -0.960294 0 -0.278989
    outer loop
      vertex 8.37978 8.89 4.29855
      vertex 8.34535 10.16 4.41706
      vertex 8.37978 10.16 4.29855
    endloop
  endfacet
  facet normal -0.960294 -0 -0.278989
    outer loop
      vertex 8.34535 10.16 4.41706
      vertex 8.37978 8.89 4.29855
      vertex 8.34535 8.89 4.41706
    endloop
  endfacet
  facet normal -0.790172 0 -0.612885
    outer loop
      vertex 8.06631 8.89 4.9647
      vertex 7.99067 10.16 5.06222
      vertex 8.06631 10.16 4.9647
    endloop
  endfacet
  facet normal -0.790172 -0 -0.612885
    outer loop
      vertex 7.99067 10.16 5.06222
      vertex 8.06631 8.89 4.9647
      vertex 7.99067 8.89 5.06222
    endloop
  endfacet
  facet normal -0.750117 0 -0.661305
    outer loop
      vertex 7.99067 8.89 5.06222
      vertex 7.90906 10.16 5.15479
      vertex 7.99067 10.16 5.06222
    endloop
  endfacet
  facet normal -0.750117 -0 -0.661305
    outer loop
      vertex 7.90906 10.16 5.15479
      vertex 7.99067 8.89 5.06222
      vertex 7.90906 8.89 5.15479
    endloop
  endfacet
  facet normal -0.0940711 0 -0.995565
    outer loop
      vertex 6.60035 8.89 5.77062
      vertex 6.72322 10.16 5.75901
      vertex 6.72322 8.89 5.75901
    endloop
  endfacet
  facet normal -0.0940711 0 -0.995565
    outer loop
      vertex 6.72322 10.16 5.75901
      vertex 6.60035 8.89 5.77062
      vertex 6.60035 10.16 5.77062
    endloop
  endfacet
  facet normal -0.218131 0 -0.975919
    outer loop
      vertex 6.84511 8.89 5.7397
      vertex 6.96555 10.16 5.71278
      vertex 6.96555 8.89 5.71278
    endloop
  endfacet
  facet normal -0.218131 0 -0.975919
    outer loop
      vertex 6.96555 10.16 5.71278
      vertex 6.84511 8.89 5.7397
      vertex 6.84511 10.16 5.7397
    endloop
  endfacet
  facet normal -0.454007 0 -0.890998
    outer loop
      vertex 7.31344 8.89 5.58753
      vertex 7.4234 10.16 5.5315
      vertex 7.4234 8.89 5.5315
    endloop
  endfacet
  facet normal -0.454007 0 -0.890998
    outer loop
      vertex 7.4234 10.16 5.5315
      vertex 7.31344 8.89 5.58753
      vertex 7.31344 10.16 5.58753
    endloop
  endfacet
  facet normal -0.509016 0 -0.860757
    outer loop
      vertex 7.4234 8.89 5.5315
      vertex 7.52963 10.16 5.46868
      vertex 7.52963 8.89 5.46868
    endloop
  endfacet
  facet normal -0.509016 0 -0.860757
    outer loop
      vertex 7.52963 10.16 5.46868
      vertex 7.4234 8.89 5.5315
      vertex 7.4234 10.16 5.5315
    endloop
  endfacet
  facet normal 0.995565 0 -0.0940711
    outer loop
      vertex 4.52799 8.89 4.05622
      vertex 4.51638 10.16 3.93335
      vertex 4.52799 10.16 4.05622
    endloop
  endfacet
  facet normal 0.995565 0 -0.0940711
    outer loop
      vertex 4.51638 10.16 3.93335
      vertex 4.52799 8.89 4.05622
      vertex 4.51638 8.89 3.93335
    endloop
  endfacet
  facet normal 0.790172 0 -0.612885
    outer loop
      vertex 4.96333 8.89 5.06222
      vertex 4.88769 10.16 4.9647
      vertex 4.96333 10.16 5.06222
    endloop
  endfacet
  facet normal 0.790172 0 -0.612885
    outer loop
      vertex 4.88769 10.16 4.9647
      vertex 4.96333 8.89 5.06222
      vertex 4.88769 8.89 4.9647
    endloop
  endfacet
  facet normal 0.890998 0 -0.454007
    outer loop
      vertex 4.7555 8.89 4.7564
      vertex 4.69947 10.16 4.64644
      vertex 4.7555 10.16 4.7564
    endloop
  endfacet
  facet normal 0.890998 0 -0.454007
    outer loop
      vertex 4.69947 10.16 4.64644
      vertex 4.7555 8.89 4.7564
      vertex 4.69947 8.89 4.64644
    endloop
  endfacet
  facet normal 0.860757 0 -0.509016
    outer loop
      vertex 4.81832 8.89 4.86263
      vertex 4.7555 10.16 4.7564
      vertex 4.81832 10.16 4.86263
    endloop
  endfacet
  facet normal 0.860757 0 -0.509016
    outer loop
      vertex 4.7555 10.16 4.7564
      vertex 4.81832 8.89 4.86263
      vertex 4.7555 8.89 4.7564
    endloop
  endfacet
  facet normal 0.960294 0 -0.278989
    outer loop
      vertex 4.60865 8.89 4.41706
      vertex 4.57422 10.16 4.29855
      vertex 4.60865 10.16 4.41706
    endloop
  endfacet
  facet normal 0.960294 0 -0.278989
    outer loop
      vertex 4.57422 10.16 4.29855
      vertex 4.60865 8.89 4.41706
      vertex 4.57422 8.89 4.29855
    endloop
  endfacet
  facet normal 0.612885 0 -0.790172
    outer loop
      vertex 5.22478 8.89 5.32367
      vertex 5.3223 10.16 5.39931
      vertex 5.3223 8.89 5.39931
    endloop
  endfacet
  facet normal 0.612885 0 -0.790172
    outer loop
      vertex 5.3223 10.16 5.39931
      vertex 5.22478 8.89 5.32367
      vertex 5.22478 10.16 5.32367
    endloop
  endfacet
  facet normal 0.509051 0 -0.860736
    outer loop
      vertex 5.42437 8.89 5.46868
      vertex 5.53059 10.16 5.5315
      vertex 5.53059 8.89 5.5315
    endloop
  endfacet
  facet normal 0.509051 0 -0.860736
    outer loop
      vertex 5.53059 10.16 5.5315
      vertex 5.42437 8.89 5.46868
      vertex 5.42437 10.16 5.46868
    endloop
  endfacet
  facet normal 0.278989 0 -0.960294
    outer loop
      vertex 5.86994 8.89 5.67835
      vertex 5.98845 10.16 5.71278
      vertex 5.98845 8.89 5.71278
    endloop
  endfacet
  facet normal 0.278989 0 -0.960294
    outer loop
      vertex 5.98845 10.16 5.71278
      vertex 5.86994 8.89 5.67835
      vertex 5.86994 10.16 5.67835
    endloop
  endfacet
  facet normal 0.0940711 0 -0.995565
    outer loop
      vertex 6.23078 8.89 5.75901
      vertex 6.35365 10.16 5.77062
      vertex 6.35365 8.89 5.77062
    endloop
  endfacet
  facet normal 0.0940711 0 -0.995565
    outer loop
      vertex 6.35365 10.16 5.77062
      vertex 6.23078 8.89 5.75901
      vertex 6.23078 10.16 5.75901
    endloop
  endfacet
  facet normal -0.218131 0 0.975919
    outer loop
      vertex 6.84511 10.16 1.8803
      vertex 6.96555 8.89 1.90722
      vertex 6.96555 10.16 1.90722
    endloop
  endfacet
  facet normal -0.218131 0 0.975919
    outer loop
      vertex 6.96555 8.89 1.90722
      vertex 6.84511 10.16 1.8803
      vertex 6.84511 8.89 1.8803
    endloop
  endfacet
  facet normal -0.397203 0 0.917731
    outer loop
      vertex 7.20018 10.16 1.98345
      vertex 7.31344 8.89 2.03247
      vertex 7.31344 10.16 2.03247
    endloop
  endfacet
  facet normal -0.397203 0 0.917731
    outer loop
      vertex 7.31344 8.89 2.03247
      vertex 7.20018 10.16 1.98345
      vertex 7.20018 8.89 1.98345
    endloop
  endfacet
  facet normal -0.278989 0 0.960294
    outer loop
      vertex 6.96555 10.16 1.90722
      vertex 7.08406 8.89 1.94165
      vertex 7.08406 10.16 1.94165
    endloop
  endfacet
  facet normal -0.278989 0 0.960294
    outer loop
      vertex 7.08406 8.89 1.94165
      vertex 6.96555 10.16 1.90722
      vertex 6.96555 8.89 1.90722
    endloop
  endfacet
  facet normal -0.612885 0 0.790172
    outer loop
      vertex 7.6317 10.16 2.22069
      vertex 7.72922 8.89 2.29633
      vertex 7.72922 10.16 2.29633
    endloop
  endfacet
  facet normal -0.612885 0 0.790172
    outer loop
      vertex 7.72922 8.89 2.29633
      vertex 7.6317 10.16 2.22069
      vertex 7.6317 8.89 2.22069
    endloop
  endfacet
  facet normal -0.562102 0 0.827068
    outer loop
      vertex 7.52963 10.16 2.15132
      vertex 7.6317 8.89 2.22069
      vertex 7.6317 10.16 2.22069
    endloop
  endfacet
  facet normal -0.562102 0 0.827068
    outer loop
      vertex 7.6317 8.89 2.22069
      vertex 7.52963 10.16 2.15132
      vertex 7.52963 8.89 2.15132
    endloop
  endfacet
  facet normal -0.454007 0 0.890998
    outer loop
      vertex 7.31344 10.16 2.03247
      vertex 7.4234 8.89 2.0885
      vertex 7.4234 10.16 2.0885
    endloop
  endfacet
  facet normal -0.454007 0 0.890998
    outer loop
      vertex 7.4234 8.89 2.0885
      vertex 7.31344 10.16 2.03247
      vertex 7.31344 8.89 2.03247
    endloop
  endfacet
  facet normal -0.94087 0 0.338768
    outer loop
      vertex 8.30354 8.89 3.08682
      vertex 8.34535 10.16 3.20294
      vertex 8.30354 10.16 3.08682
    endloop
  endfacet
  facet normal -0.94087 0 0.338768
    outer loop
      vertex 8.34535 10.16 3.20294
      vertex 8.30354 8.89 3.08682
      vertex 8.34535 8.89 3.20294
    endloop
  endfacet
  facet normal -0.891015 0 0.453974
    outer loop
      vertex 8.1985 8.89 2.86359
      vertex 8.25453 10.16 2.97356
      vertex 8.1985 10.16 2.86359
    endloop
  endfacet
  facet normal -0.891015 0 0.453974
    outer loop
      vertex 8.25453 10.16 2.97356
      vertex 8.1985 8.89 2.86359
      vertex 8.25453 8.89 2.97356
    endloop
  endfacet
  facet normal -0.987683 0 0.15647
    outer loop
      vertex 8.4067 8.89 3.44189
      vertex 8.42601 10.16 3.56378
      vertex 8.4067 10.16 3.44189
    endloop
  endfacet
  facet normal -0.987683 0 0.15647
    outer loop
      vertex 8.42601 10.16 3.56378
      vertex 8.4067 8.89 3.44189
      vertex 8.42601 8.89 3.56378
    endloop
  endfacet
  facet normal 0.562102 0 0.827068
    outer loop
      vertex 5.3223 10.16 2.22069
      vertex 5.42437 8.89 2.15132
      vertex 5.42437 10.16 2.15132
    endloop
  endfacet
  facet normal 0.562102 0 0.827068
    outer loop
      vertex 5.42437 8.89 2.15132
      vertex 5.3223 10.16 2.22069
      vertex 5.3223 8.89 2.22069
    endloop
  endfacet
  facet normal 0.397203 0 0.917731
    outer loop
      vertex 5.64056 10.16 2.03247
      vertex 5.75382 8.89 1.98345
      vertex 5.75382 10.16 1.98345
    endloop
  endfacet
  facet normal 0.397203 0 0.917731
    outer loop
      vertex 5.75382 8.89 1.98345
      vertex 5.64056 10.16 2.03247
      vertex 5.64056 8.89 2.03247
    endloop
  endfacet
  facet normal 0.509051 0 0.860736
    outer loop
      vertex 5.42437 10.16 2.15132
      vertex 5.53059 8.89 2.0885
      vertex 5.53059 10.16 2.0885
    endloop
  endfacet
  facet normal 0.509051 0 0.860736
    outer loop
      vertex 5.53059 8.89 2.0885
      vertex 5.42437 10.16 2.15132
      vertex 5.42437 8.89 2.15132
    endloop
  endfacet
  facet normal 0.218131 0 0.975919
    outer loop
      vertex 5.98845 10.16 1.90722
      vertex 6.10889 8.89 1.8803
      vertex 6.10889 10.16 1.8803
    endloop
  endfacet
  facet normal 0.218131 0 0.975919
    outer loop
      vertex 6.10889 8.89 1.8803
      vertex 5.98845 10.16 1.90722
      vertex 5.98845 8.89 1.90722
    endloop
  endfacet
  facet normal 0.0940711 0 0.995565
    outer loop
      vertex 6.23078 10.16 1.86099
      vertex 6.35365 8.89 1.84938
      vertex 6.35365 10.16 1.84938
    endloop
  endfacet
  facet normal 0.0940711 0 0.995565
    outer loop
      vertex 6.35365 8.89 1.84938
      vertex 6.23078 10.16 1.86099
      vertex 6.23078 8.89 1.86099
    endloop
  endfacet
  facet normal 0.790172 -0 0.612885
    outer loop
      vertex 4.88769 8.89 2.6553
      vertex 4.96333 10.16 2.55778
      vertex 4.88769 10.16 2.6553
    endloop
  endfacet
  facet normal 0.790172 0 0.612885
    outer loop
      vertex 4.96333 10.16 2.55778
      vertex 4.88769 8.89 2.6553
      vertex 4.96333 8.89 2.55778
    endloop
  endfacet
  facet normal 0.860736 -0 0.509051
    outer loop
      vertex 4.7555 8.89 2.86359
      vertex 4.81832 10.16 2.75737
      vertex 4.7555 10.16 2.86359
    endloop
  endfacet
  facet normal 0.860736 0 0.509051
    outer loop
      vertex 4.81832 10.16 2.75737
      vertex 4.7555 8.89 2.86359
      vertex 4.81832 8.89 2.75737
    endloop
  endfacet
  facet normal 0.940896 -0 0.338697
    outer loop
      vertex 4.60865 8.89 3.20294
      vertex 4.65045 10.16 3.08682
      vertex 4.60865 10.16 3.20294
    endloop
  endfacet
  facet normal 0.940896 0 0.338697
    outer loop
      vertex 4.65045 10.16 3.08682
      vertex 4.60865 8.89 3.20294
      vertex 4.65045 8.89 3.08682
    endloop
  endfacet
  facet normal 0.917731 -0 0.397203
    outer loop
      vertex 4.65045 8.89 3.08682
      vertex 4.69947 10.16 2.97356
      vertex 4.65045 10.16 3.08682
    endloop
  endfacet
  facet normal 0.917731 0 0.397203
    outer loop
      vertex 4.69947 10.16 2.97356
      vertex 4.65045 8.89 3.08682
      vertex 4.69947 8.89 2.97356
    endloop
  endfacet
  facet normal 0.975919 -0 0.218131
    outer loop
      vertex 4.5473 8.89 3.44189
      vertex 4.57422 10.16 3.32145
      vertex 4.5473 10.16 3.44189
    endloop
  endfacet
  facet normal 0.975919 0 0.218131
    outer loop
      vertex 4.57422 10.16 3.32145
      vertex 4.5473 8.89 3.44189
      vertex 4.57422 8.89 3.32145
    endloop
  endfacet
  facet normal 0.995565 -0 0.0940711
    outer loop
      vertex 4.51638 8.89 3.68665
      vertex 4.52799 10.16 3.56378
      vertex 4.51638 10.16 3.68665
    endloop
  endfacet
  facet normal 0.995565 0 0.0940711
    outer loop
      vertex 4.52799 10.16 3.56378
      vertex 4.51638 8.89 3.68665
      vertex 4.52799 8.89 3.56378
    endloop
  endfacet
  facet normal -0.94087 0 -0.338768
    outer loop
      vertex 8.34535 8.89 4.41706
      vertex 8.30354 10.16 4.53318
      vertex 8.34535 10.16 4.41706
    endloop
  endfacet
  facet normal -0.94087 -0 -0.338768
    outer loop
      vertex 8.30354 10.16 4.53318
      vertex 8.34535 8.89 4.41706
      vertex 8.30354 8.89 4.53318
    endloop
  endfacet
  facet normal -0.860757 0 -0.509016
    outer loop
      vertex 8.1985 8.89 4.7564
      vertex 8.13568 10.16 4.86263
      vertex 8.1985 10.16 4.7564
    endloop
  endfacet
  facet normal -0.860757 -0 -0.509016
    outer loop
      vertex 8.13568 10.16 4.86263
      vertex 8.1985 8.89 4.7564
      vertex 8.13568 8.89 4.86263
    endloop
  endfacet
  facet normal -0.0314397 0 -0.999506
    outer loop
      vertex 6.477 8.89 5.7745
      vertex 6.60035 10.16 5.77062
      vertex 6.60035 8.89 5.77062
    endloop
  endfacet
  facet normal -0.0314397 0 -0.999506
    outer loop
      vertex 6.60035 10.16 5.77062
      vertex 6.477 8.89 5.7745
      vertex 6.477 10.16 5.7745
    endloop
  endfacet
  facet normal -0.397203 0 -0.917731
    outer loop
      vertex 7.20018 8.89 5.63655
      vertex 7.31344 10.16 5.58753
      vertex 7.31344 8.89 5.58753
    endloop
  endfacet
  facet normal -0.397203 0 -0.917731
    outer loop
      vertex 7.31344 10.16 5.58753
      vertex 7.20018 8.89 5.63655
      vertex 7.20018 10.16 5.63655
    endloop
  endfacet
  facet normal -0.612885 0 -0.790172
    outer loop
      vertex 7.6317 8.89 5.39931
      vertex 7.72922 10.16 5.32367
      vertex 7.72922 8.89 5.32367
    endloop
  endfacet
  facet normal -0.612885 0 -0.790172
    outer loop
      vertex 7.72922 10.16 5.32367
      vertex 7.6317 8.89 5.39931
      vertex 7.6317 10.16 5.39931
    endloop
  endfacet
  facet normal 0.975919 0 -0.218131
    outer loop
      vertex 4.57422 8.89 4.29855
      vertex 4.5473 10.16 4.17811
      vertex 4.57422 10.16 4.29855
    endloop
  endfacet
  facet normal 0.975919 0 -0.218131
    outer loop
      vertex 4.5473 10.16 4.17811
      vertex 4.57422 8.89 4.29855
      vertex 4.5473 8.89 4.17811
    endloop
  endfacet
  facet normal 0.999506 0 -0.0314397
    outer loop
      vertex 4.51638 8.89 3.93335
      vertex 4.5125 10.16 3.81
      vertex 4.51638 10.16 3.93335
    endloop
  endfacet
  facet normal 0.999506 0 -0.0314397
    outer loop
      vertex 4.5125 10.16 3.81
      vertex 4.51638 8.89 3.93335
      vertex 4.5125 8.89 3.81
    endloop
  endfacet
  facet normal 0.999506 -0 0.0314397
    outer loop
      vertex 4.5125 8.89 3.81
      vertex 4.51638 10.16 3.68665
      vertex 4.5125 10.16 3.81
    endloop
  endfacet
  facet normal 0.999506 0 0.0314397
    outer loop
      vertex 4.51638 10.16 3.68665
      vertex 4.5125 8.89 3.81
      vertex 4.51638 8.89 3.68665
    endloop
  endfacet
  facet normal 0.661305 0 -0.750117
    outer loop
      vertex 5.13221 8.89 5.24206
      vertex 5.22478 10.16 5.32367
      vertex 5.22478 8.89 5.32367
    endloop
  endfacet
  facet normal 0.661305 0 -0.750117
    outer loop
      vertex 5.22478 10.16 5.32367
      vertex 5.13221 8.89 5.24206
      vertex 5.13221 10.16 5.24206
    endloop
  endfacet
  facet normal 0.338697 0 -0.940896
    outer loop
      vertex 5.75382 8.89 5.63655
      vertex 5.86994 10.16 5.67835
      vertex 5.86994 8.89 5.67835
    endloop
  endfacet
  facet normal 0.338697 0 -0.940896
    outer loop
      vertex 5.86994 10.16 5.67835
      vertex 5.75382 8.89 5.63655
      vertex 5.75382 10.16 5.63655
    endloop
  endfacet
  facet normal -0.995565 0 0.0940711
    outer loop
      vertex 8.42601 8.89 3.56378
      vertex 8.43762 10.16 3.68665
      vertex 8.42601 10.16 3.56378
    endloop
  endfacet
  facet normal -0.995565 0 0.0940711
    outer loop
      vertex 8.43762 10.16 3.68665
      vertex 8.42601 8.89 3.56378
      vertex 8.43762 8.89 3.68665
    endloop
  endfacet
  facet normal -0.999506 0 0.0314397
    outer loop
      vertex 8.43762 8.89 3.68665
      vertex 8.4415 10.16 3.81
      vertex 8.43762 10.16 3.68665
    endloop
  endfacet
  facet normal -0.999506 0 0.0314397
    outer loop
      vertex 8.4415 10.16 3.81
      vertex 8.43762 8.89 3.68665
      vertex 8.4415 8.89 3.81
    endloop
  endfacet
  facet normal -0.15647 0 0.987683
    outer loop
      vertex 6.72322 10.16 1.86099
      vertex 6.84511 8.89 1.8803
      vertex 6.84511 10.16 1.8803
    endloop
  endfacet
  facet normal -0.15647 0 0.987683
    outer loop
      vertex 6.84511 8.89 1.8803
      vertex 6.72322 10.16 1.86099
      vertex 6.72322 8.89 1.86099
    endloop
  endfacet
  facet normal -0.338697 0 0.940896
    outer loop
      vertex 7.08406 10.16 1.94165
      vertex 7.20018 8.89 1.98345
      vertex 7.20018 10.16 1.98345
    endloop
  endfacet
  facet normal -0.338697 0 0.940896
    outer loop
      vertex 7.20018 8.89 1.98345
      vertex 7.08406 10.16 1.94165
      vertex 7.08406 8.89 1.94165
    endloop
  endfacet
  facet normal -0.661305 0 0.750117
    outer loop
      vertex 7.72922 10.16 2.29633
      vertex 7.82179 8.89 2.37794
      vertex 7.82179 10.16 2.37794
    endloop
  endfacet
  facet normal -0.661305 0 0.750117
    outer loop
      vertex 7.82179 8.89 2.37794
      vertex 7.72922 10.16 2.29633
      vertex 7.72922 8.89 2.29633
    endloop
  endfacet
  facet normal -0.707107 0 0.707107
    outer loop
      vertex 7.82179 8.89 2.37794
      vertex 7.90906 10.16 2.46521
      vertex 7.82179 10.16 2.37794
    endloop
  endfacet
  facet normal -0.707107 0 0.707107
    outer loop
      vertex 7.90906 10.16 2.46521
      vertex 7.82179 8.89 2.37794
      vertex 7.90906 8.89 2.46521
    endloop
  endfacet
  facet normal -0.750117 0 0.661305
    outer loop
      vertex 7.90906 8.89 2.46521
      vertex 7.99067 10.16 2.55778
      vertex 7.90906 10.16 2.46521
    endloop
  endfacet
  facet normal -0.750117 0 0.661305
    outer loop
      vertex 7.99067 10.16 2.55778
      vertex 7.90906 8.89 2.46521
      vertex 7.99067 8.89 2.55778
    endloop
  endfacet
  facet normal -0.509016 0 0.860757
    outer loop
      vertex 7.4234 10.16 2.0885
      vertex 7.52963 8.89 2.15132
      vertex 7.52963 10.16 2.15132
    endloop
  endfacet
  facet normal -0.509016 0 0.860757
    outer loop
      vertex 7.52963 8.89 2.15132
      vertex 7.4234 10.16 2.0885
      vertex 7.4234 8.89 2.0885
    endloop
  endfacet
  facet normal -0.827068 0 0.562102
    outer loop
      vertex 8.06631 8.89 2.6553
      vertex 8.13568 10.16 2.75737
      vertex 8.06631 10.16 2.6553
    endloop
  endfacet
  facet normal -0.827068 0 0.562102
    outer loop
      vertex 8.13568 10.16 2.75737
      vertex 8.06631 8.89 2.6553
      vertex 8.13568 8.89 2.75737
    endloop
  endfacet
  facet normal -0.860736 0 0.509051
    outer loop
      vertex 8.13568 8.89 2.75737
      vertex 8.1985 10.16 2.86359
      vertex 8.13568 10.16 2.75737
    endloop
  endfacet
  facet normal -0.860736 0 0.509051
    outer loop
      vertex 8.1985 10.16 2.86359
      vertex 8.13568 8.89 2.75737
      vertex 8.1985 8.89 2.86359
    endloop
  endfacet
  facet normal -0.91776 0 0.397134
    outer loop
      vertex 8.25453 8.89 2.97356
      vertex 8.30354 10.16 3.08682
      vertex 8.25453 10.16 2.97356
    endloop
  endfacet
  facet normal -0.91776 0 0.397134
    outer loop
      vertex 8.30354 10.16 3.08682
      vertex 8.25453 8.89 2.97356
      vertex 8.30354 8.89 3.08682
    endloop
  endfacet
  facet normal -0.975919 0 0.218131
    outer loop
      vertex 8.37978 8.89 3.32145
      vertex 8.4067 10.16 3.44189
      vertex 8.37978 10.16 3.32145
    endloop
  endfacet
  facet normal -0.975919 0 0.218131
    outer loop
      vertex 8.4067 10.16 3.44189
      vertex 8.37978 8.89 3.32145
      vertex 8.4067 8.89 3.44189
    endloop
  endfacet
  facet normal 0.612885 0 0.790172
    outer loop
      vertex 5.22478 10.16 2.29633
      vertex 5.3223 8.89 2.22069
      vertex 5.3223 10.16 2.22069
    endloop
  endfacet
  facet normal 0.612885 0 0.790172
    outer loop
      vertex 5.3223 8.89 2.22069
      vertex 5.22478 10.16 2.29633
      vertex 5.22478 8.89 2.29633
    endloop
  endfacet
  facet normal 0.453974 0 0.891015
    outer loop
      vertex 5.53059 10.16 2.0885
      vertex 5.64056 8.89 2.03247
      vertex 5.64056 10.16 2.03247
    endloop
  endfacet
  facet normal 0.453974 0 0.891015
    outer loop
      vertex 5.64056 8.89 2.03247
      vertex 5.53059 10.16 2.0885
      vertex 5.53059 8.89 2.0885
    endloop
  endfacet
  facet normal 0.278989 0 0.960294
    outer loop
      vertex 5.86994 10.16 1.94165
      vertex 5.98845 8.89 1.90722
      vertex 5.98845 10.16 1.90722
    endloop
  endfacet
  facet normal 0.278989 0 0.960294
    outer loop
      vertex 5.98845 8.89 1.90722
      vertex 5.86994 10.16 1.94165
      vertex 5.86994 8.89 1.94165
    endloop
  endfacet
  facet normal 0.15647 0 0.987683
    outer loop
      vertex 6.10889 10.16 1.8803
      vertex 6.23078 8.89 1.86099
      vertex 6.23078 10.16 1.86099
    endloop
  endfacet
  facet normal 0.15647 0 0.987683
    outer loop
      vertex 6.23078 8.89 1.86099
      vertex 6.10889 10.16 1.8803
      vertex 6.10889 8.89 1.8803
    endloop
  endfacet
  facet normal 0.0314397 0 0.999506
    outer loop
      vertex 6.35365 10.16 1.84938
      vertex 6.477 8.89 1.8455
      vertex 6.477 10.16 1.8455
    endloop
  endfacet
  facet normal 0.0314397 0 0.999506
    outer loop
      vertex 6.477 8.89 1.8455
      vertex 6.35365 10.16 1.84938
      vertex 6.35365 8.89 1.84938
    endloop
  endfacet
  facet normal -0.0314397 0 0.999506
    outer loop
      vertex 6.477 10.16 1.8455
      vertex 6.60035 8.89 1.84938
      vertex 6.60035 10.16 1.84938
    endloop
  endfacet
  facet normal -0.0314397 0 0.999506
    outer loop
      vertex 6.60035 8.89 1.84938
      vertex 6.477 10.16 1.8455
      vertex 6.477 8.89 1.8455
    endloop
  endfacet
  facet normal 0.827068 -0 0.562102
    outer loop
      vertex 4.81832 8.89 2.75737
      vertex 4.88769 10.16 2.6553
      vertex 4.81832 10.16 2.75737
    endloop
  endfacet
  facet normal 0.827068 0 0.562102
    outer loop
      vertex 4.88769 10.16 2.6553
      vertex 4.81832 8.89 2.75737
      vertex 4.88769 8.89 2.6553
    endloop
  endfacet
  facet normal 0.750117 -0 0.661305
    outer loop
      vertex 4.96333 8.89 2.55778
      vertex 5.04494 10.16 2.46521
      vertex 4.96333 10.16 2.55778
    endloop
  endfacet
  facet normal 0.750117 0 0.661305
    outer loop
      vertex 5.04494 10.16 2.46521
      vertex 4.96333 8.89 2.55778
      vertex 5.04494 8.89 2.46521
    endloop
  endfacet
  facet normal 0.707107 -0 0.707107
    outer loop
      vertex 5.04494 8.89 2.46521
      vertex 5.13221 10.16 2.37794
      vertex 5.04494 10.16 2.46521
    endloop
  endfacet
  facet normal 0.707107 0 0.707107
    outer loop
      vertex 5.13221 10.16 2.37794
      vertex 5.04494 8.89 2.46521
      vertex 5.13221 8.89 2.37794
    endloop
  endfacet
  facet normal 0.960294 -0 0.278989
    outer loop
      vertex 4.57422 8.89 3.32145
      vertex 4.60865 10.16 3.20294
      vertex 4.57422 10.16 3.32145
    endloop
  endfacet
  facet normal 0.960294 0 0.278989
    outer loop
      vertex 4.60865 10.16 3.20294
      vertex 4.57422 8.89 3.32145
      vertex 4.60865 8.89 3.20294
    endloop
  endfacet
  facet normal 0.987683 -0 0.15647
    outer loop
      vertex 4.52799 8.89 3.56378
      vertex 4.5473 10.16 3.44189
      vertex 4.52799 10.16 3.56378
    endloop
  endfacet
  facet normal 0.987683 0 0.15647
    outer loop
      vertex 4.5473 10.16 3.44189
      vertex 4.52799 8.89 3.56378
      vertex 4.5473 8.89 3.44189
    endloop
  endfacet
  facet normal 1 0 0
    outer loop
      vertex 2.8607 8.89 7.515
      vertex 2.8607 4.7276 1.735
      vertex 2.8607 8.89 0.634999
    endloop
  endfacet
  facet normal 1 0 0
    outer loop
      vertex 2.8607 8.89 7.515
      vertex 2.8607 4.2276 2.235
      vertex 2.8607 4.7276 1.735
    endloop
  endfacet
  facet normal 1 -0 0
    outer loop
      vertex 2.8607 2.34 7.515
      vertex 2.8607 4.2276 2.235
      vertex 2.8607 8.89 7.515
    endloop
  endfacet
  facet normal 1 0 0
    outer loop
      vertex 2.8607 4.2276 2.235
      vertex 2.8607 2.34 7.515
      vertex 2.8607 2.34 2.235
    endloop
  endfacet
  facet normal 1 0 0
    outer loop
      vertex 2.8607 8.89 0.634999
      vertex 2.8607 4.7276 1.735
      vertex 2.8607 4.7276 0.634999
    endloop
  endfacet
  facet normal -1 0 0
    outer loop
      vertex 10.0933 4.7276 1.735
      vertex 10.0933 8.89 0.634999
      vertex 10.0933 4.7276 0.634999
    endloop
  endfacet
  facet normal -1 0 0
    outer loop
      vertex 10.0933 8.89 0.634999
      vertex 10.0933 4.7276 1.735
      vertex 10.0933 8.89 7.515
    endloop
  endfacet
  facet normal -1 0 0
    outer loop
      vertex 10.0933 4.2276 2.235
      vertex 10.0933 8.89 7.515
      vertex 10.0933 4.7276 1.735
    endloop
  endfacet
  facet normal -1 0 0
    outer loop
      vertex 10.0933 2.34 7.515
      vertex 10.0933 4.2276 2.235
      vertex 10.0933 2.34 2.235
    endloop
  endfacet
  facet normal -1 0 0
    outer loop
      vertex 10.0933 4.2276 2.235
      vertex 10.0933 2.34 7.515
      vertex 10.0933 8.89 7.515
    endloop
  endfacet
  facet normal -0 0 1
    outer loop
      vertex 2.8607 8.89 0.634999
      vertex 10.0933 4.7276 0.634999
      vertex 10.0933 8.89 0.634999
    endloop
  endfacet
  facet normal 0 0 1
    outer loop
      vertex 10.0933 4.7276 0.634999
      vertex 2.8607 8.89 0.634999
      vertex 2.8607 4.7276 0.634999
    endloop
  endfacet
  facet normal 0 1 -0
    outer loop
      vertex 10.0933 4.7276 0.634999
      vertex 2.8607 4.7276 1.735
      vertex 10.0933 4.7276 1.735
    endloop
  endfacet
  facet normal 0 1 0
    outer loop
      vertex 2.8607 4.7276 1.735
      vertex 10.0933 4.7276 0.634999
      vertex 2.8607 4.7276 0.634999
    endloop
  endfacet
  facet normal 0 -1 0
    outer loop
      vertex 2.8607 8.89 7.515
      vertex 6.477 8.89 5.7745
      vertex 10.0933 8.89 7.515
    endloop
  endfacet
  facet normal 0 -1 0
    outer loop
      vertex 2.8607 8.89 7.515
      vertex 6.35365 8.89 5.77062
      vertex 6.477 8.89 5.7745
    endloop
  endfacet
  facet normal 0 -1 0
    outer loop
      vertex 2.8607 8.89 7.515
      vertex 6.23078 8.89 5.75901
      vertex 6.35365 8.89 5.77062
    endloop
  endfacet
  facet normal 0 -1 0
    outer loop
      vertex 2.8607 8.89 7.515
      vertex 6.10889 8.89 5.7397
      vertex 6.23078 8.89 5.75901
    endloop
  endfacet
  facet normal 0 -1 0
    outer loop
      vertex 2.8607 8.89 7.515
      vertex 5.98845 8.89 5.71278
      vertex 6.10889 8.89 5.7397
    endloop
  endfacet
  facet normal 0 -1 0
    outer loop
      vertex 2.8607 8.89 7.515
      vertex 5.86994 8.89 5.67835
      vertex 5.98845 8.89 5.71278
    endloop
  endfacet
  facet normal 0 -1 0
    outer loop
      vertex 2.8607 8.89 7.515
      vertex 5.75382 8.89 5.63655
      vertex 5.86994 8.89 5.67835
    endloop
  endfacet
  facet normal 0 -1 0
    outer loop
      vertex 2.8607 8.89 7.515
      vertex 5.64056 8.89 5.58753
      vertex 5.75382 8.89 5.63655
    endloop
  endfacet
  facet normal 0 -1 0
    outer loop
      vertex 2.8607 8.89 7.515
      vertex 5.53059 8.89 5.5315
      vertex 5.64056 8.89 5.58753
    endloop
  endfacet
  facet normal 0 -1 0
    outer loop
      vertex 2.8607 8.89 7.515
      vertex 5.42437 8.89 5.46868
      vertex 5.53059 8.89 5.5315
    endloop
  endfacet
  facet normal 0 -1 0
    outer loop
      vertex 2.8607 8.89 7.515
      vertex 5.3223 8.89 5.39931
      vertex 5.42437 8.89 5.46868
    endloop
  endfacet
  facet normal 0 -1 0
    outer loop
      vertex 2.8607 8.89 7.515
      vertex 5.22478 8.89 5.32367
      vertex 5.3223 8.89 5.39931
    endloop
  endfacet
  facet normal 0 -1 0
    outer loop
      vertex 2.8607 8.89 7.515
      vertex 5.13221 8.89 5.24206
      vertex 5.22478 8.89 5.32367
    endloop
  endfacet
  facet normal 0 -1 0
    outer loop
      vertex 2.8607 8.89 7.515
      vertex 5.04494 8.89 5.15479
      vertex 5.13221 8.89 5.24206
    endloop
  endfacet
  facet normal 0 -1 0
    outer loop
      vertex 2.8607 8.89 7.515
      vertex 4.96333 8.89 5.06222
      vertex 5.04494 8.89 5.15479
    endloop
  endfacet
  facet normal 0 -1 0
    outer loop
      vertex 2.8607 8.89 7.515
      vertex 4.88769 8.89 4.9647
      vertex 4.96333 8.89 5.06222
    endloop
  endfacet
  facet normal 0 -1 0
    outer loop
      vertex 2.8607 8.89 7.515
      vertex 4.81832 8.89 4.86263
      vertex 4.88769 8.89 4.9647
    endloop
  endfacet
  facet normal 0 -1 0
    outer loop
      vertex 2.8607 8.89 7.515
      vertex 4.7555 8.89 4.7564
      vertex 4.81832 8.89 4.86263
    endloop
  endfacet
  facet normal 0 -1 0
    outer loop
      vertex 2.8607 8.89 7.515
      vertex 4.69947 8.89 4.64644
      vertex 4.7555 8.89 4.7564
    endloop
  endfacet
  facet normal 0 -1 0
    outer loop
      vertex 2.8607 8.89 7.515
      vertex 4.65045 8.89 4.53318
      vertex 4.69947 8.89 4.64644
    endloop
  endfacet
  facet normal 0 -1 0
    outer loop
      vertex 2.8607 8.89 7.515
      vertex 4.60865 8.89 4.41706
      vertex 4.65045 8.89 4.53318
    endloop
  endfacet
  facet normal 0 -1 0
    outer loop
      vertex 2.8607 8.89 7.515
      vertex 4.57422 8.89 4.29855
      vertex 4.60865 8.89 4.41706
    endloop
  endfacet
  facet normal 0 -1 0
    outer loop
      vertex 2.8607 8.89 7.515
      vertex 4.5473 8.89 4.17811
      vertex 4.57422 8.89 4.29855
    endloop
  endfacet
  facet normal 0 -1 0
    outer loop
      vertex 2.8607 8.89 7.515
      vertex 4.52799 8.89 4.05622
      vertex 4.5473 8.89 4.17811
    endloop
  endfacet
  facet normal 0 -1 0
    outer loop
      vertex 2.8607 8.89 7.515
      vertex 4.51638 8.89 3.93335
      vertex 4.52799 8.89 4.05622
    endloop
  endfacet
  facet normal 0 -1 0
    outer loop
      vertex 2.8607 8.89 0.634999
      vertex 4.51638 8.89 3.93335
      vertex 2.8607 8.89 7.515
    endloop
  endfacet
  facet normal 0 -1 0
    outer loop
      vertex 4.51638 8.89 3.93335
      vertex 2.8607 8.89 0.634999
      vertex 4.5125 8.89 3.81
    endloop
  endfacet
  facet normal 0 -1 -0
    outer loop
      vertex 4.5125 8.89 3.81
      vertex 2.8607 8.89 0.634999
      vertex 4.51638 8.89 3.68665
    endloop
  endfacet
  facet normal 0 -1 -0
    outer loop
      vertex 4.51638 8.89 3.68665
      vertex 2.8607 8.89 0.634999
      vertex 4.52799 8.89 3.56378
    endloop
  endfacet
  facet normal 0 -1 -0
    outer loop
      vertex 4.52799 8.89 3.56378
      vertex 2.8607 8.89 0.634999
      vertex 4.5473 8.89 3.44189
    endloop
  endfacet
  facet normal 0 -1 -0
    outer loop
      vertex 4.5473 8.89 3.44189
      vertex 2.8607 8.89 0.634999
      vertex 4.57422 8.89 3.32145
    endloop
  endfacet
  facet normal 0 -1 -0
    outer loop
      vertex 4.57422 8.89 3.32145
      vertex 2.8607 8.89 0.634999
      vertex 4.60865 8.89 3.20294
    endloop
  endfacet
  facet normal 0 -1 -0
    outer loop
      vertex 6.35365 8.89 1.84938
      vertex 2.8607 8.89 0.634999
      vertex 6.477 8.89 1.8455
    endloop
  endfacet
  facet normal 0 -1 -0
    outer loop
      vertex 6.23078 8.89 1.86099
      vertex 2.8607 8.89 0.634999
      vertex 6.35365 8.89 1.84938
    endloop
  endfacet
  facet normal 0 -1 -0
    outer loop
      vertex 6.10889 8.89 1.8803
      vertex 2.8607 8.89 0.634999
      vertex 6.23078 8.89 1.86099
    endloop
  endfacet
  facet normal 0 -1 -0
    outer loop
      vertex 5.98845 8.89 1.90722
      vertex 2.8607 8.89 0.634999
      vertex 6.10889 8.89 1.8803
    endloop
  endfacet
  facet normal 0 -1 -0
    outer loop
      vertex 5.86994 8.89 1.94165
      vertex 2.8607 8.89 0.634999
      vertex 5.98845 8.89 1.90722
    endloop
  endfacet
  facet normal 0 -1 -0
    outer loop
      vertex 5.75382 8.89 1.98345
      vertex 2.8607 8.89 0.634999
      vertex 5.86994 8.89 1.94165
    endloop
  endfacet
  facet normal 0 -1 -0
    outer loop
      vertex 5.64056 8.89 2.03247
      vertex 2.8607 8.89 0.634999
      vertex 5.75382 8.89 1.98345
    endloop
  endfacet
  facet normal 0 -1 -0
    outer loop
      vertex 5.53059 8.89 2.0885
      vertex 2.8607 8.89 0.634999
      vertex 5.64056 8.89 2.03247
    endloop
  endfacet
  facet normal 0 -1 -0
    outer loop
      vertex 5.42437 8.89 2.15132
      vertex 2.8607 8.89 0.634999
      vertex 5.53059 8.89 2.0885
    endloop
  endfacet
  facet normal 0 -1 -0
    outer loop
      vertex 5.3223 8.89 2.22069
      vertex 2.8607 8.89 0.634999
      vertex 5.42437 8.89 2.15132
    endloop
  endfacet
  facet normal 0 -1 -0
    outer loop
      vertex 5.22478 8.89 2.29633
      vertex 2.8607 8.89 0.634999
      vertex 5.3223 8.89 2.22069
    endloop
  endfacet
  facet normal 0 -1 -0
    outer loop
      vertex 5.13221 8.89 2.37794
      vertex 2.8607 8.89 0.634999
      vertex 5.22478 8.89 2.29633
    endloop
  endfacet
  facet normal 0 -1 -0
    outer loop
      vertex 5.04494 8.89 2.46521
      vertex 2.8607 8.89 0.634999
      vertex 5.13221 8.89 2.37794
    endloop
  endfacet
  facet normal 0 -1 -0
    outer loop
      vertex 4.96333 8.89 2.55778
      vertex 2.8607 8.89 0.634999
      vertex 5.04494 8.89 2.46521
    endloop
  endfacet
  facet normal 0 -1 -0
    outer loop
      vertex 4.88769 8.89 2.6553
      vertex 2.8607 8.89 0.634999
      vertex 4.96333 8.89 2.55778
    endloop
  endfacet
  facet normal 0 -1 -0
    outer loop
      vertex 4.81832 8.89 2.75737
      vertex 2.8607 8.89 0.634999
      vertex 4.88769 8.89 2.6553
    endloop
  endfacet
  facet normal 0 -1 -0
    outer loop
      vertex 4.7555 8.89 2.86359
      vertex 2.8607 8.89 0.634999
      vertex 4.81832 8.89 2.75737
    endloop
  endfacet
  facet normal 0 -1 -0
    outer loop
      vertex 4.69947 8.89 2.97356
      vertex 2.8607 8.89 0.634999
      vertex 4.7555 8.89 2.86359
    endloop
  endfacet
  facet normal 0 -1 -0
    outer loop
      vertex 4.65045 8.89 3.08682
      vertex 2.8607 8.89 0.634999
      vertex 4.69947 8.89 2.97356
    endloop
  endfacet
  facet normal 0 -1 -0
    outer loop
      vertex 4.60865 8.89 3.20294
      vertex 2.8607 8.89 0.634999
      vertex 4.65045 8.89 3.08682
    endloop
  endfacet
  facet normal 0 -1 0
    outer loop
      vertex 6.60035 8.89 5.77062
      vertex 10.0933 8.89 7.515
      vertex 6.477 8.89 5.7745
    endloop
  endfacet
  facet normal 0 -1 0
    outer loop
      vertex 6.72322 8.89 5.75901
      vertex 10.0933 8.89 7.515
      vertex 6.60035 8.89 5.77062
    endloop
  endfacet
  facet normal 0 -1 0
    outer loop
      vertex 6.84511 8.89 5.7397
      vertex 10.0933 8.89 7.515
      vertex 6.72322 8.89 5.75901
    endloop
  endfacet
  facet normal 0 -1 0
    outer loop
      vertex 6.96555 8.89 5.71278
      vertex 10.0933 8.89 7.515
      vertex 6.84511 8.89 5.7397
    endloop
  endfacet
  facet normal 0 -1 0
    outer loop
      vertex 7.08406 8.89 5.67835
      vertex 10.0933 8.89 7.515
      vertex 6.96555 8.89 5.71278
    endloop
  endfacet
  facet normal 0 -1 0
    outer loop
      vertex 7.20018 8.89 5.63655
      vertex 10.0933 8.89 7.515
      vertex 7.08406 8.89 5.67835
    endloop
  endfacet
  facet normal 0 -1 0
    outer loop
      vertex 7.31344 8.89 5.58753
      vertex 10.0933 8.89 7.515
      vertex 7.20018 8.89 5.63655
    endloop
  endfacet
  facet normal 0 -1 0
    outer loop
      vertex 7.4234 8.89 5.5315
      vertex 10.0933 8.89 7.515
      vertex 7.31344 8.89 5.58753
    endloop
  endfacet
  facet normal 0 -1 0
    outer loop
      vertex 7.52963 8.89 5.46868
      vertex 10.0933 8.89 7.515
      vertex 7.4234 8.89 5.5315
    endloop
  endfacet
  facet normal 0 -1 0
    outer loop
      vertex 7.6317 8.89 5.39931
      vertex 10.0933 8.89 7.515
      vertex 7.52963 8.89 5.46868
    endloop
  endfacet
  facet normal 0 -1 0
    outer loop
      vertex 7.72922 8.89 5.32367
      vertex 10.0933 8.89 7.515
      vertex 7.6317 8.89 5.39931
    endloop
  endfacet
  facet normal 0 -1 0
    outer loop
      vertex 7.82179 8.89 5.24206
      vertex 10.0933 8.89 7.515
      vertex 7.72922 8.89 5.32367
    endloop
  endfacet
  facet normal 0 -1 0
    outer loop
      vertex 7.90906 8.89 5.15479
      vertex 10.0933 8.89 7.515
      vertex 7.82179 8.89 5.24206
    endloop
  endfacet
  facet normal 0 -1 0
    outer loop
      vertex 7.99067 8.89 5.06222
      vertex 10.0933 8.89 7.515
      vertex 7.90906 8.89 5.15479
    endloop
  endfacet
  facet normal 0 -1 0
    outer loop
      vertex 8.06631 8.89 4.9647
      vertex 10.0933 8.89 7.515
      vertex 7.99067 8.89 5.06222
    endloop
  endfacet
  facet normal 0 -1 0
    outer loop
      vertex 8.13568 8.89 4.86263
      vertex 10.0933 8.89 7.515
      vertex 8.06631 8.89 4.9647
    endloop
  endfacet
  facet normal 0 -1 0
    outer loop
      vertex 8.1985 8.89 4.7564
      vertex 10.0933 8.89 7.515
      vertex 8.13568 8.89 4.86263
    endloop
  endfacet
  facet normal 0 -1 0
    outer loop
      vertex 8.25453 8.89 4.64644
      vertex 10.0933 8.89 7.515
      vertex 8.1985 8.89 4.7564
    endloop
  endfacet
  facet normal 0 -1 0
    outer loop
      vertex 8.30354 8.89 4.53318
      vertex 10.0933 8.89 7.515
      vertex 8.25453 8.89 4.64644
    endloop
  endfacet
  facet normal 0 -1 0
    outer loop
      vertex 8.34535 8.89 4.41706
      vertex 10.0933 8.89 7.515
      vertex 8.30354 8.89 4.53318
    endloop
  endfacet
  facet normal 0 -1 0
    outer loop
      vertex 8.37978 8.89 4.29855
      vertex 10.0933 8.89 7.515
      vertex 8.34535 8.89 4.41706
    endloop
  endfacet
  facet normal 0 -1 0
    outer loop
      vertex 8.4067 8.89 4.17811
      vertex 10.0933 8.89 7.515
      vertex 8.37978 8.89 4.29855
    endloop
  endfacet
  facet normal 0 -1 0
    outer loop
      vertex 8.42601 8.89 4.05622
      vertex 10.0933 8.89 7.515
      vertex 8.4067 8.89 4.17811
    endloop
  endfacet
  facet normal 0 -1 0
    outer loop
      vertex 8.43762 8.89 3.93335
      vertex 10.0933 8.89 7.515
      vertex 8.42601 8.89 4.05622
    endloop
  endfacet
  facet normal 0 -1 0
    outer loop
      vertex 10.0933 8.89 0.634999
      vertex 8.43762 8.89 3.93335
      vertex 8.4415 8.89 3.81
    endloop
  endfacet
  facet normal 0 -1 0
    outer loop
      vertex 10.0933 8.89 0.634999
      vertex 8.4415 8.89 3.81
      vertex 8.43762 8.89 3.68665
    endloop
  endfacet
  facet normal 0 -1 0
    outer loop
      vertex 10.0933 8.89 0.634999
      vertex 8.43762 8.89 3.68665
      vertex 8.42601 8.89 3.56378
    endloop
  endfacet
  facet normal 0 -1 0
    outer loop
      vertex 10.0933 8.89 0.634999
      vertex 8.42601 8.89 3.56378
      vertex 8.4067 8.89 3.44189
    endloop
  endfacet
  facet normal 0 -1 0
    outer loop
      vertex 10.0933 8.89 0.634999
      vertex 8.4067 8.89 3.44189
      vertex 8.37978 8.89 3.32145
    endloop
  endfacet
  facet normal 0 -1 0
    outer loop
      vertex 10.0933 8.89 0.634999
      vertex 8.37978 8.89 3.32145
      vertex 8.34535 8.89 3.20294
    endloop
  endfacet
  facet normal 0 -1 0
    outer loop
      vertex 10.0933 8.89 0.634999
      vertex 8.34535 8.89 3.20294
      vertex 8.30354 8.89 3.08682
    endloop
  endfacet
  facet normal 0 -1 0
    outer loop
      vertex 10.0933 8.89 0.634999
      vertex 6.477 8.89 1.8455
      vertex 2.8607 8.89 0.634999
    endloop
  endfacet
  facet normal 0 -1 0
    outer loop
      vertex 6.477 8.89 1.8455
      vertex 10.0933 8.89 0.634999
      vertex 6.60035 8.89 1.84938
    endloop
  endfacet
  facet normal 0 -1 0
    outer loop
      vertex 6.60035 8.89 1.84938
      vertex 10.0933 8.89 0.634999
      vertex 6.72322 8.89 1.86099
    endloop
  endfacet
  facet normal 0 -1 0
    outer loop
      vertex 6.72322 8.89 1.86099
      vertex 10.0933 8.89 0.634999
      vertex 6.84511 8.89 1.8803
    endloop
  endfacet
  facet normal 0 -1 0
    outer loop
      vertex 6.84511 8.89 1.8803
      vertex 10.0933 8.89 0.634999
      vertex 6.96555 8.89 1.90722
    endloop
  endfacet
  facet normal 0 -1 0
    outer loop
      vertex 8.43762 8.89 3.93335
      vertex 10.0933 8.89 0.634999
      vertex 10.0933 8.89 7.515
    endloop
  endfacet
  facet normal 0 -1 0
    outer loop
      vertex 8.25453 8.89 2.97356
      vertex 10.0933 8.89 0.634999
      vertex 8.30354 8.89 3.08682
    endloop
  endfacet
  facet normal 0 -1 0
    outer loop
      vertex 8.1985 8.89 2.86359
      vertex 10.0933 8.89 0.634999
      vertex 8.25453 8.89 2.97356
    endloop
  endfacet
  facet normal 0 -1 0
    outer loop
      vertex 8.13568 8.89 2.75737
      vertex 10.0933 8.89 0.634999
      vertex 8.1985 8.89 2.86359
    endloop
  endfacet
  facet normal 0 -1 0
    outer loop
      vertex 8.06631 8.89 2.6553
      vertex 10.0933 8.89 0.634999
      vertex 8.13568 8.89 2.75737
    endloop
  endfacet
  facet normal 0 -1 0
    outer loop
      vertex 7.99067 8.89 2.55778
      vertex 10.0933 8.89 0.634999
      vertex 8.06631 8.89 2.6553
    endloop
  endfacet
  facet normal 0 -1 0
    outer loop
      vertex 7.90906 8.89 2.46521
      vertex 10.0933 8.89 0.634999
      vertex 7.99067 8.89 2.55778
    endloop
  endfacet
  facet normal 0 -1 0
    outer loop
      vertex 7.82179 8.89 2.37794
      vertex 10.0933 8.89 0.634999
      vertex 7.90906 8.89 2.46521
    endloop
  endfacet
  facet normal 0 -1 0
    outer loop
      vertex 7.72922 8.89 2.29633
      vertex 10.0933 8.89 0.634999
      vertex 7.82179 8.89 2.37794
    endloop
  endfacet
  facet normal 0 -1 0
    outer loop
      vertex 7.6317 8.89 2.22069
      vertex 10.0933 8.89 0.634999
      vertex 7.72922 8.89 2.29633
    endloop
  endfacet
  facet normal 0 -1 0
    outer loop
      vertex 7.52963 8.89 2.15132
      vertex 10.0933 8.89 0.634999
      vertex 7.6317 8.89 2.22069
    endloop
  endfacet
  facet normal 0 -1 0
    outer loop
      vertex 7.4234 8.89 2.0885
      vertex 10.0933 8.89 0.634999
      vertex 7.52963 8.89 2.15132
    endloop
  endfacet
  facet normal 0 -1 0
    outer loop
      vertex 7.31344 8.89 2.03247
      vertex 10.0933 8.89 0.634999
      vertex 7.4234 8.89 2.0885
    endloop
  endfacet
  facet normal 0 -1 0
    outer loop
      vertex 7.20018 8.89 1.98345
      vertex 10.0933 8.89 0.634999
      vertex 7.31344 8.89 2.03247
    endloop
  endfacet
  facet normal 0 -1 0
    outer loop
      vertex 7.08406 8.89 1.94165
      vertex 10.0933 8.89 0.634999
      vertex 7.20018 8.89 1.98345
    endloop
  endfacet
  facet normal 0 -1 0
    outer loop
      vertex 6.96555 8.89 1.90722
      vertex 10.0933 8.89 0.634999
      vertex 7.08406 8.89 1.94165
    endloop
  endfacet
  facet normal -0 0 1
    outer loop
      vertex 2.8607 4.2276 2.235
      vertex 10.0933 2.34 2.235
      vertex 10.0933 4.2276 2.235
    endloop
  endfacet
  facet normal 0 0 1
    outer loop
      vertex 10.0933 2.34 2.235
      vertex 2.8607 4.2276 2.235
      vertex 2.8607 2.34 2.235
    endloop
  endfacet
  facet normal 0 1 -0
    outer loop
      vertex 10.0933 2.34 2.235
      vertex 2.8607 2.34 7.515
      vertex 10.0933 2.34 7.515
    endloop
  endfacet
  facet normal 0 1 0
    outer loop
      vertex 2.8607 2.34 7.515
      vertex 10.0933 2.34 2.235
      vertex 2.8607 2.34 2.235
    endloop
  endfacet
  facet normal 0 0.707107 0.707107
    outer loop
      vertex 10.0933 4.7276 1.735
      vertex 2.8607 4.2276 2.235
      vertex 10.0933 4.2276 2.235
    endloop
  endfacet
  facet normal 0 0.707107 0.707107
    outer loop
      vertex 2.8607 4.2276 2.235
      vertex 10.0933 4.7276 1.735
      vertex 2.8607 4.7276 1.735
    endloop
  endfacet
endsolid OpenSCAD_Model
